HIERARCHY
ROOT Hips
{
	OFFSET -14.64140 90.27770 -84.91600
	CHANNELS 6 Xposition Yposition Zposition Zrotation Xrotation Yrotation
	JOINT Spine
	{
		OFFSET 0.00000 13.20850 -1.60436
		CHANNELS 3 Zrotation Xrotation Yrotation
		JOINT Spine1
		{
			OFFSET 0.00000 8.61716 0.00000
			CHANNELS 3 Zrotation Xrotation Yrotation
			JOINT Spine2
			{
				OFFSET 0.00000 8.61717 0.00000
				CHANNELS 3 Zrotation Xrotation Yrotation
				JOINT Spine3
				{
					OFFSET 0.00000 8.61717 0.00000
					CHANNELS 3 Zrotation Xrotation Yrotation
					JOINT Neck
					{
						OFFSET 0.00000 11.07920 1.10792
						CHANNELS 3 Zrotation Xrotation Yrotation
						JOINT Neck1
						{
							OFFSET 0.00000 7.08032 0.00000
							CHANNELS 3 Zrotation Xrotation Yrotation
							JOINT Head
							{
								OFFSET 0.00000 7.08031 0.00000
								CHANNELS 3 Zrotation Xrotation Yrotation
								End site
								{
									OFFSET 0.00000 0.00000 0.00000
								}
							}
						}
					}
					JOINT RightShoulder
					{
						OFFSET -0.01000 7.91373 5.19711
						CHANNELS 3 Zrotation Xrotation Yrotation
						JOINT RightArm
						{
							OFFSET -18.41580 0.00000 0.00000
							CHANNELS 3 Zrotation Xrotation Yrotation
							JOINT RightForeArm
							{
								OFFSET -29.11090 0.00000 0.00000
								CHANNELS 3 Zrotation Xrotation Yrotation
								JOINT RightHand
								{
									OFFSET -24.65040 0.00000 0.00000
									CHANNELS 3 Zrotation Xrotation Yrotation
									JOINT RightHandThumb1
									{
										OFFSET -5.35114 -0.85590 3.97906
										CHANNELS 3 Zrotation Xrotation Yrotation
										JOINT RightHandThumb2
										{
											OFFSET -4.52789 0.00000 0.00000
											CHANNELS 3 Zrotation Xrotation Yrotation
											JOINT RightHandThumb3
											{
												OFFSET -2.46976 0.00000 0.00000
												CHANNELS 3 Zrotation Xrotation Yrotation
												End site
												{
													OFFSET 0.00000 0.00000 0.00000
												}
											}
										}
									}
									JOINT RightHandIndex1
									{
										OFFSET -14.26970 0.00000 2.88139
										CHANNELS 3 Zrotation Xrotation Yrotation
										JOINT RightHandIndex2
										{
											OFFSET -5.48836 0.00000 0.00000
											CHANNELS 3 Zrotation Xrotation Yrotation
											JOINT RightHandIndex3
											{
												OFFSET -3.01859 0.00000 0.00000
												CHANNELS 3 Zrotation Xrotation Yrotation
												End site
												{
													OFFSET 0.00000 0.00000 0.00000
												}
											}
										}
									}
									JOINT RightHandMiddle1
									{
										OFFSET -14.26970 0.00000 -0.09147
										CHANNELS 3 Zrotation Xrotation Yrotation
										JOINT RightHandMiddle2
										{
											OFFSET -6.17441 0.00000 0.00000
											CHANNELS 3 Zrotation Xrotation Yrotation
											JOINT RightHandMiddle3
											{
												OFFSET -3.56743 0.00000 0.00000
												CHANNELS 3 Zrotation Xrotation Yrotation
												End site
												{
													OFFSET 0.00000 0.00000 0.00000
												}
											}
										}
									}
									JOINT RightHandRing1
									{
										OFFSET -12.69180 0.00000 -3.06433
										CHANNELS 3 Zrotation Xrotation Yrotation
										JOINT RightHandRing2
										{
											OFFSET -5.62556 0.00000 0.00000
											CHANNELS 3 Zrotation Xrotation Yrotation
											JOINT RightHandRing3
											{
												OFFSET -3.56744 0.00000 0.00000
												CHANNELS 3 Zrotation Xrotation Yrotation
												End site
												{
													OFFSET 0.00000 0.00000 0.00000
												}
											}
										}
									}
									JOINT RightHandPinky1
									{
										OFFSET -11.11390 0.00000 -6.03719
										CHANNELS 3 Zrotation Xrotation Yrotation
										JOINT RightHandPinky2
										{
											OFFSET -4.52789 0.00000 0.00000
											CHANNELS 3 Zrotation Xrotation Yrotation
											JOINT RightHandPinky3
											{
												OFFSET -2.46976 0.00000 0.00000
												CHANNELS 3 Zrotation Xrotation Yrotation
												End site
												{
													OFFSET 0.00000 0.00000 0.00000
												}
											}
										}
									}
								}
							}
						}
					}
					JOINT LeftShoulder
					{
						OFFSET 0.01000 7.91373 5.19711
						CHANNELS 3 Zrotation Xrotation Yrotation
						JOINT LeftArm
						{
							OFFSET 18.41580 0.00000 0.00000
							CHANNELS 3 Zrotation Xrotation Yrotation
							JOINT LeftForeArm
							{
								OFFSET 29.11090 0.00000 0.00000
								CHANNELS 3 Zrotation Xrotation Yrotation
								JOINT LeftHand
								{
									OFFSET 24.65040 0.00000 0.00000
									CHANNELS 3 Zrotation Xrotation Yrotation
									JOINT LeftHandThumb1
									{
										OFFSET 5.35114 -0.85590 3.97906
										CHANNELS 3 Zrotation Xrotation Yrotation
										JOINT LeftHandThumb2
										{
											OFFSET 4.52789 0.00000 0.00000
											CHANNELS 3 Zrotation Xrotation Yrotation
											JOINT LeftHandThumb3
											{
												OFFSET 2.46977 0.00000 0.00000
												CHANNELS 3 Zrotation Xrotation Yrotation
												End site
												{
													OFFSET 0.00000 0.00000 0.00000
												}
											}
										}
									}
									JOINT LeftHandIndex1
									{
										OFFSET 14.26970 0.00000 2.88139
										CHANNELS 3 Zrotation Xrotation Yrotation
										JOINT LeftHandIndex2
										{
											OFFSET 5.48836 0.00000 0.00000
											CHANNELS 3 Zrotation Xrotation Yrotation
											JOINT LeftHandIndex3
											{
												OFFSET 3.01859 0.00000 0.00000
												CHANNELS 3 Zrotation Xrotation Yrotation
												End site
												{
													OFFSET 0.00000 0.00000 0.00000
												}
											}
										}
									}
									JOINT LeftHandMiddle1
									{
										OFFSET 14.26970 0.00000 -0.09147
										CHANNELS 3 Zrotation Xrotation Yrotation
										JOINT LeftHandMiddle2
										{
											OFFSET 6.17440 0.00000 0.00000
											CHANNELS 3 Zrotation Xrotation Yrotation
											JOINT LeftHandMiddle3
											{
												OFFSET 3.56744 0.00000 0.00000
												CHANNELS 3 Zrotation Xrotation Yrotation
												End site
												{
													OFFSET 0.00000 0.00000 0.00000
												}
											}
										}
									}
									JOINT LeftHandRing1
									{
										OFFSET 12.69180 0.00000 -3.06433
										CHANNELS 3 Zrotation Xrotation Yrotation
										JOINT LeftHandRing2
										{
											OFFSET 5.62556 0.00000 0.00000
											CHANNELS 3 Zrotation Xrotation Yrotation
											JOINT LeftHandRing3
											{
												OFFSET 3.56744 0.00000 0.00000
												CHANNELS 3 Zrotation Xrotation Yrotation
												End site
												{
													OFFSET 0.00000 0.00000 0.00000
												}
											}
										}
									}
									JOINT LeftHandPinky1
									{
										OFFSET 11.11390 0.00000 -6.03719
										CHANNELS 3 Zrotation Xrotation Yrotation
										JOINT LeftHandPinky2
										{
											OFFSET 4.52789 0.00000 0.00000
											CHANNELS 3 Zrotation Xrotation Yrotation
											JOINT LeftHandPinky3
											{
												OFFSET 2.46976 0.00000 0.00000
												CHANNELS 3 Zrotation Xrotation Yrotation
												End site
												{
													OFFSET 0.00000 0.00000 0.00000
												}
											}
										}
									}
								}
							}
						}
					}
					JOINT pCube4
					{
						OFFSET 0.00000 10.91090 1.10792
						CHANNELS 3 Zrotation Xrotation Yrotation
						End site
						{
							OFFSET 0.00000 0.00000 0.00000
						}
					}
				}
			}
		}
	}
	JOINT RightUpLeg
	{
		OFFSET -9.98441 0.00000 0.00000
		CHANNELS 3 Zrotation Xrotation Yrotation
		JOINT RightLeg
		{
			OFFSET 0.00000 -42.11790 0.00000
			CHANNELS 3 Zrotation Xrotation Yrotation
			JOINT RightFoot
			{
				OFFSET 0.00000 -45.00020 -0.00001
				CHANNELS 3 Zrotation Xrotation Yrotation
				JOINT RightForeFoot
				{
					OFFSET 0.00000 -3.74820 0.00000
					CHANNELS 3 Zrotation Xrotation Yrotation
					JOINT RightToeBase
					{
						OFFSET 0.00000 0.06325 14.43120
						CHANNELS 3 Zrotation Xrotation Yrotation
						End site
						{
							OFFSET 0.00000 0.00000 0.00000
						}
					}
				}
			}
		}
	}
	JOINT LeftUpLeg
	{
		OFFSET 9.98441 0.00000 0.00000
		CHANNELS 3 Zrotation Xrotation Yrotation
		JOINT LeftLeg
		{
			OFFSET 0.00000 -42.11800 0.00000
			CHANNELS 3 Zrotation Xrotation Yrotation
			JOINT LeftFoot
			{
				OFFSET 0.00000 -45.00070 0.00000
				CHANNELS 3 Zrotation Xrotation Yrotation
				JOINT LeftForeFoot
				{
					OFFSET 0.00000 -3.74824 0.00000
					CHANNELS 3 Zrotation Xrotation Yrotation
					JOINT LeftToeBase
					{
						OFFSET 0.00000 0.06325 14.43110
						CHANNELS 3 Zrotation Xrotation Yrotation
						End site
						{
							OFFSET 0.00000 0.00000 0.00000
						}
					}
				}
			}
		}
	}
}
MOTION
Frames: 4
Frame Time: 0.050000
-0.04011644101745731 -0.022655573192093516 -0.027292067957925638 0.03641978931137007 -0.04902017856842675 0.01841282815792474 -1.7375332388480393 1.1078507388455827 -1.0255963156659154 -0.786454315289254 3.616350769874489 0.31368723717520086 -1.1135452161818744 -1.9085436296053802 -0.7684897792132402 0.06903505787029697 -0.24725028852532116 -0.7368691542031849 0.5498492035991913 11.959065892170969 -2.1457368648023256 0.2549775430994717 -0.5884451083591179 -6.362821207154952 1.0097824053680553 -15.922579031730836 -0.4950796690219568 -5.501649378810672 2.0581462554917445 -15.976978280165966 69.98508147734547 -5.06669894777535 4.694575766267827 31.060422217222072 9.573800955393343 89.85607936402891 20.337586220534103 -0.4430753903686928 -3.815144289062646 4.532461527938893 -0.12779258490549475 -1.583138962432786 -0.011867578410590746 -9.5168338938965e-05 -56.260626264708726 -0.010593634985456717 -0.01515766279721739 -56.28387196634254 -38.721093600851034 -0.009711259604643554 0.038245139401690505 -0.020272737241377573 0.02429286711502402 0.04103015381303841 -0.015853028890639203 -0.027073019917238303 -0.029786480864436967 -36.65469056089562 0.018498469120634575 0.003092547714259245 -0.016301481401818106 -0.0038593468017386057 0.04892056410394759 -0.015841930799913292 -0.0028567348523666895 -0.02941405584351975 -19.7459979416878 -0.03779002967387909 0.029912321367460668 0.0063793063848192845 -0.03969139631177815 -0.03589920854985586 -0.01678361924767108 -0.013018949720059495 0.0315663119804461 24.055484026819144 -0.01812590259530885 -0.0457520681441899 28.869758871172355 0.0012666805189540558 -0.0012384391313230417 28.839755560191644 0.04974526397501974 0.027343919412221956 5.332205959148022 1.5073806108120253 13.740101647604476 -67.45107095827753 17.294902552684334 -4.508273988663317 4.16129646521401 -5.279754809945793 -78.23288759526895 -13.051136497991159 -0.6843609521928182 0.07526170672309868 -0.43546254191148726 0.08227287092660522 -8.12275572226183 -0.04612830294651519 -0.014905810527001578 44.52940854308317 -0.022031130863982964 -0.0319601477836335 44.52727922164021 12.441933210319089 0.012538449026108324 0.04024743230090471 -0.013901111075375025 0.00402883384902074 0.003092008357240004 0.03165120017111005 0.021275281546114834 -0.02229835743814276 11.121464060655525 -0.005916961039006362 0.0031449946439632056 -0.031081529597104265 0.016509308558849935 -0.006120334453746735 0.020204953457636104 -0.03624186033990051 -0.031486930961720866 4.803205729471339 -0.043358345066494657 -0.047019659747162844 0.028073750025840505 -0.045058826640477403 0.02505876241126673 0.006192086424272735 -0.048066071575137106 -0.04538600803899931 -5.558222098931675 -0.0064842105482938945 0.0054060431293709785 -6.762170953104092 -0.0041749655448337026 -0.04159562118497341 -6.695347894282586 -0.022509664276047735 0.0099125185473769 -0.03703627038048849 0.04485751096782305 -0.04496409600652592 8.086138523047175 3.5200259151440236 -19.267050808181818 0.037169165644526686 10.373081621796365 0.01345193537843911 -5.629796057345004 -15.61233441609548 3.240504546192683 -0.038803106144146775 -0.009175958207035581 0.01356829012545843 0.005931334252256239 4.7124592310027404 -0.015271769446744373 12.473006732784828 -8.25037165029529 6.908592389868961 -0.013383381370065435 46.35209723935012 -0.040482469313423974 -4.356846660120564 -14.751479731957463 -3.8304169395505063 0.020349858261921046 -0.04530660211405226 -0.00441562851711467 0.01690237101241616 -10.70339350276571 -0.04101879350143285 
-0.0377046697977778 -0.04693108059394924 0.0001683763533778214 0.04452380157860388 0.00450189636025219 -0.018740683340620796 -1.8305553750607348 0.9836362287990015 -1.0426735118266193 -0.8010355610174895 3.548267495740961 0.3527588044701585 -1.1135016915267855 -1.972422230552942 -0.8594126309953442 0.0796491977462747 -0.290775312494724 -0.8032982078124795 0.3912677259355541 12.13184501536976 -1.8147117738768561 0.23663441356716441 -0.4434189632448332 -5.469531462135693 0.8458464856594675 -15.731181048325766 -0.4178669633714483 -5.492052686874933 2.0831898574693275 -15.810629556687767 69.88270135736232 -4.373182365368213 4.397564065097056 31.447568795642162 9.564347914352442 89.52940917422184 20.36716964211692 -0.4329990090129581 -3.6660516287419487 4.499764648525177 -0.09103799895316877 -1.609556135447785 0.02161809741672978 -0.026518881006152656 -56.20568003476665 -0.017228603658415945 -0.006839565713599918 -56.26497254689684 -38.72993074824422 -0.026218339535050438 -0.018052263216105608 0.028610255888745106 0.0031923849468243905 0.012322679352114162 -0.017948340727338512 -0.031873273184614366 -0.001626012826307774 -36.67230610079352 -0.017940596548624132 -0.03678241603208174 0.03121627430398947 0.04957870517692238 -0.04341694556415451 0.0370870958884912 -0.035575682532365885 0.035949652715815274 -19.768532534734163 -0.02249103404730796 0.01972485287752267 0.01262894791951786 0.03116157614908263 0.03556371181843102 -0.02267821040440273 0.03734349246853834 -0.032753688082179516 24.00826106774436 0.0004710346798615532 -0.04590996885205283 28.871740830161404 -0.045905348351585815 0.020563387496401946 28.881033989270314 -0.03927647251724317 0.04027240370596708 5.850444791338516 1.6038863002236277 13.77969128735058 -67.1898939368949 15.521476161846437 -5.919806294208542 3.6139483954053753 -5.170195985146816 -79.96865091160943 -11.712451503330938 -0.34304448936442355 -0.30506383340717746 -0.48923722744706516 0.02381515777736449 -8.118130161416802 -0.01376583824972162 0.027269552523455722 44.53218272305091 0.03942783757446523 -0.035917604621161094 44.58895848198698 12.456192541012564 0.010102992082913992 -0.02660445912418508 -0.016808994009911375 -0.03199720458553739 -0.038789415833269586 0.020155297697560148 0.01088028921377018 0.013164559142297779 11.082773462026456 0.04831724234343567 0.04575263604295707 -0.027273977089875803 -0.0466524357951435 -0.0027253486141633754 -0.034372680550543815 -0.04515612864662466 0.0025751434484187997 4.7373256293493675 0.010357341429384442 -0.0435410820455913 0.005765624466057157 0.034337784229647055 0.0011053181604308666 0.023444074120663464 -0.01003148978442118 -0.008956702015527215 -5.6316925929825175 -0.03192658542417149 -0.01613065204772561 -6.722142077112579 -0.025941714839067178 0.01604496711859897 -6.742647504607465 0.008959825971486295 0.03984203973770313 -0.03896600887578157 0.03844726511211376 0.015192608326547986 7.998639869396686 3.471751401728872 -19.194928230825667 -0.02342293298064476 10.374744416637704 -0.03409519157550246 -5.609372463848562 -15.643636328296822 3.1861766101531988 0.03500812604668408 -0.04238816429513978 0.028937734996242564 0.005755919674347829 4.742726287894806 -0.04367662099357738 12.479806556012237 -8.224808880905693 6.905008192610821 -0.0051371781564776495 46.37349574111048 0.03310830955311229 -4.322463540704559 -14.721571247512317 -3.8107659183212355 0.024400329827250534 0.003086483475723655 -0.015118951771545324 -0.02115561831733736 -10.731875756111508 -0.023463373517188038 
0.016283877132972475 -0.006159126173759175 -0.03490605497284859 -0.034360238059108296 -0.009476675651111533 0.032155016333725875 -1.973820814171545 0.7339401103376924 -0.9491057057828166 -0.8305418199260927 3.5626646828255795 0.3751899861164668 -1.1210155749155226 -2.0229634594669212 -0.9486814498912332 0.04083396012241337 -0.21309394608675747 -0.7740808758451267 0.2474600590713793 12.305622254343254 -1.3703199936115156 0.21602545631942055 -0.24243173940080284 -4.525451166451225 0.6884901011786779 -15.380435525860438 -0.3640330083524367 -5.5036769550261635 1.991699548786634 -15.769635370092862 69.7659824631699 -3.838433265264515 4.380917057540432 31.36391346934291 9.291258694571935 89.813544192108 20.57383576257731 -0.389671725905787 -3.7713290591279054 4.524500862013314 -0.09277944927293455 -1.5809434318937243 0.022575011862517955 -0.04887215030523449 -56.19195015058026 -0.033024188952097036 -0.04763971776565557 -56.24713616448878 -38.77850350484959 0.028755981110838925 -0.014792907315429359 -0.0318937518744766 -0.04161218769492275 -0.0036442330709237397 -0.008776490321928626 0.041558379902017224 0.0405716893445941 -36.65182095231817 0.046577878024375685 0.002404501017800166 -0.029685833405950195 -0.03943734374675142 0.04677132794710534 -0.024892898334932967 0.006449962158253403 0.04295323538972256 -19.76680254060528 -0.0494684982933116 0.02730461079202043 0.03224761988359149 -0.007910206502019406 -0.024598285212182245 -0.02749626208663034 -0.03941586294489019 0.038835935374409714 24.09570613205338 0.008802719486648602 -0.03419238082759905 28.86728262025795 -0.0019318313595016118 -0.0017541064160833517 28.871791419103104 -0.03727107675457469 -0.017167316850574783 6.351932701658671 1.6836167033793767 13.891327375067673 -66.92893020803758 14.00678189515916 -7.437009719284429 3.197588404528216 -5.341236920273318 -82.56871526614823 -10.338738387015525 -0.40400064999771124 -0.39132352857441327 -0.5158870684566409 0.0969269140742158 -8.159079960032942 0.03420841660626878 -0.025919609107456693 44.592260503983724 -0.013716766297696798 -0.04942231369151963 44.58660960612689 12.43562687355688 0.026640747201883173 0.014770789090569145 -0.04017784574426342 -0.0188424266032172 0.004763078434289708 0.039251128638279675 -0.019549063156119977 -0.006462242960047741 11.093977589790816 -0.030759991272317575 0.026851441797053562 0.009218385781890366 0.030807426748685973 0.043698428531503276 -0.0026227058244922656 -0.022613999166233738 0.020009732741138892 4.750961251368671 0.02786822325389782 0.03671293056877248 -0.02438703134768723 -0.018871985770521457 -0.003536647438983629 0.040958476854733264 -0.034626463906275474 -0.0390130693102735 -5.57131295143838 0.004575669415927303 0.007399313562744888 -6.708952502229691 -0.033273178105167105 -0.049309266917430865 -6.718739575633349 0.0035845195722992826 0.01529750879591247 0.025408054318776813 0.0019596829046453932 0.005721534700230689 8.06362415112578 3.514763522230561 -19.20919477857559 -0.005552439604673867 10.42649902455085 -0.03491404477669886 -5.575787359037851 -15.688180066026645 3.178308731978822 -0.02492447288552387 0.0014445800145345769 -0.00024873942144728337 -0.0021019027798371446 4.685957452957618 -0.009426549610469875 12.476972568540306 -8.220897192158446 6.872426392153969 0.0032892650304235382 46.35483427231906 -0.03641954005698066 -4.340180966805363 -14.712134239199527 -3.826810147804262 0.04187449368615375 -0.013585616052839613 0.002992252363503714 -0.026707775259758215 -10.701494091328492 0.03200100124461201 
0.034526833367226076 0.02595088097545549 0.023345763160973382 -0.00970845357482681 -0.030617993820097472 -0.035248347861921804 -2.0959242727319665 0.5879778735266047 -0.9175721626828546 -0.8794042996837419 3.53156936866051 0.36090287268046406 -1.1303744382250287 -2.0691959683628607 -1.1412026772196389 0.006198155433585886 -0.20905249381931884 -0.8478865185754607 0.11933791884026208 12.521045306536028 -1.0329931760145281 0.12188584998675012 -0.06912810342487241 -3.7057530850641975 0.46747401356387425 -15.070680102601989 -0.33092493048458205 -5.449833768725604 2.008458487169566 -15.64074206086671 69.35320619389869 -3.5035480776154095 4.609934356710459 30.87693562078075 8.810385966829143 91.18607495166665 20.611123592041135 -0.43498834346949333 -3.9481399758350855 4.567118805619851 -0.10191797890381235 -1.6414441640853197 -0.04460960709157881 -0.047516010955066836 -56.22427783368507 -0.0040120082480249635 0.041554369410357145 -56.18479828838838 -38.81468979063262 0.003758480247902094 -0.014287089997726897 0.04905366352462428 0.01662933676641167 0.004994416247778873 0.00888884660851211 -0.0031078418756340376 -0.020944624587680316 -36.71695558042466 -0.03282998492290536 0.02681737359631621 -0.027719387527745113 -0.006007332440540183 -0.008151952362785682 -0.018395717588592573 -0.029986464589112926 0.012372377103816343 -19.731479990510277 0.010754880742296934 0.006304021931615975 0.01283096203890035 -0.04708269285726227 -0.0202800777578575 0.03890959852493664 0.03130924015054014 0.0065272593874087 24.064743281340657 -0.03257426159480846 -0.01725138674700113 28.902724989152112 0.027911099900716007 -0.039288274847671875 28.876905702860938 0.008176821808338553 0.004329458134351361 6.819611631401683 1.7609039581927146 13.854754229893326 -66.6658634195118 13.195901285262039 -8.871504001302391 3.970088257786479 -6.02817266628278 -86.70927589689313 -8.944971594380537 -0.6387590366670769 -0.43418550596167327 -0.494434428035069 0.06443074426619932 -8.13127504899006 -0.028227099459730138 0.020040632578980873 44.612139760122275 -0.017157087561111818 0.02243818318420074 44.52458461929004 12.474288208821955 -0.00829582819131934 0.00885606426245856 -0.02402637615968173 0.027329479423933274 -0.010375041356131745 0.041069105712929085 -0.03956455353153312 0.04032579202031395 11.143449232471665 -0.007807382061685747 -0.009732881258925212 0.0033222073688400204 -0.011354078845916403 0.005498257410590559 0.04340816560248302 -0.0480863696107864 0.02944020161431404 4.7675552022496905 -0.021641709294214544 -0.018246876942697637 0.009905503684772611 0.009184044678972058 0.01955423211597169 0.02429525019087317 -0.0019559253685539763 -0.026538813042725266 -5.590498479430581 0.012932614802075035 -0.028069928885330792 -6.67120118175882 -0.04416822872771281 0.020733867844552948 -6.673889200863057 -0.012196363057230987 -0.01862301422752375 0.018772734299452684 0.04110657723807082 0.01204846270129458 8.073451379098294 3.4886068019626006 -19.22656018480754 -0.04118828491959962 10.386408651308761 -0.005583077798453195 -5.5987673612580355 -15.691926780889911 3.185883960069207 -0.02616543963164481 0.0016655251798129232 -0.04981070413410885 0.01180075972919855 4.656668394560959 -0.027048830299792905 12.415448111200341 -8.219386254170677 6.844781322278206 -0.03782216012115566 46.36229306037146 0.010281489126159697 -4.296797820809759 -14.75968597104531 -3.8498663474833017 0.02056918809794006 -0.016247611947179233 -0.044263303173757866 -0.030414655144978913 -10.719255651890094 0.025854982029421464 
